<?xml version="1.0" ?><svg viewBox="0 0 32 32" xmlns="http://www.w3.org/2000/svg" fill="#ccc"><title/><g data-name="Square Menu" id="Square_Menu"><path d="M12,15H7a3,3,0,0,1-3-3V7A3,3,0,0,1,7,4h5a3,3,0,0,1,3,3v5A3,3,0,0,1,12,15Z"/><path d="M25,15H20a3,3,0,0,1-3-3V7a3,3,0,0,1,3-3h5a3,3,0,0,1,3,3v5A3,3,0,0,1,25,15Z"/><path d="M12,28H7a3,3,0,0,1-3-3V20a3,3,0,0,1,3-3h5a3,3,0,0,1,3,3v5A3,3,0,0,1,12,28Z"/><path d="M25,28H20a3,3,0,0,1-3-3V20a3,3,0,0,1,3-3h5a3,3,0,0,1,3,3v5A3,3,0,0,1,25,28Z"/></g></svg>
